<svg width="1069" height="810" viewBox="0 0 1069 810" fill="none" xmlns="http://www.w3.org/2000/svg">
<g clip-path="url(#clip0_96_196)">
<g opacity="0.2">
<path opacity="0.2" d="M1069 0H-245V1120H1069V0Z" fill="#FFF8E8"/>
</g>
<path d="M85.0162 318.72C56.2959 342.84 35.178 377.56 44.1883 411.04C49.1158 429.4 62.5844 445.64 66.0571 464.24C72.9086 500.92 40.481 533.24 15.2803 563.56C-35.1679 624.32 -62.9496 702.56 -40.377 774.44C-17.7574 846.32 64.0392 906.2 150.998 899.32C203.042 895.2 251.753 869.2 303.797 872.84C353.87 876.32 394.933 906.16 438.858 926.92C533.184 971.52 652.899 974.76 750.323 935.28C788.523 919.8 823.954 897.64 847.371 867.6C870.835 837.6 881.207 799.08 869.287 764.48C858.587 733.4 831.838 708.64 808.655 683C785.472 657.36 764.261 627.04 767.874 594.84C771.581 561.84 799.973 535.52 820.903 507.6C840.801 481.04 854.927 450.12 852.721 418.64C850.515 387.16 829.444 355.52 795.186 343.56C764.307 332.76 728.454 339 696.777 330.08C658.343 319.28 632.954 288.56 613.479 258.36C594.004 228.16 576.499 195.4 544.588 174.2C509.955 151.2 461.994 151.8 427.923 174.2C393.759 196.68 365.274 213.44 323.695 226.28C242.227 251.6 149.168 264.84 85.0162 318.72Z" fill="#FFE3BF"/>
<path d="M66.3856 820.64C34.9904 789.04 32.7378 736.32 68.3097 708.12C90.0376 690.88 121.198 684.8 144.287 668.88C185.913 640.2 191.169 587.6 182.909 542.52C174.65 497.44 156.301 452.52 163.34 407.28C170.802 359.2 208.861 315.44 260.623 295.32C291.267 283.4 330.546 280.64 356.122 299.28C382.074 318.2 385.218 352 407.556 374C433.32 399.32 478.184 402.84 516.993 397.48C555.803 392.08 593.581 379.68 632.907 380C672.233 380.32 715.783 398.6 723.714 431.44C729.486 455.44 714.985 479.16 701.845 500.92C684.388 529.88 668.385 559.96 661.768 592C655.151 624.08 658.765 658.64 678.428 686.52C693.492 707.88 716.768 723.92 737.229 741.72C757.69 759.52 776.508 781.04 778.479 805.88C781.764 846.76 736.244 881.24 688.705 887.4C641.213 893.6 593.581 878.56 549.984 861.36C506.388 844.16 462.979 824.08 415.252 819.24C301.028 807.52 164.419 919.24 66.3856 820.64Z" fill="#FFD69E"/>
<path d="M431.443 364.64C406.899 355 382.027 343.4 366.916 324.32C351.805 305.24 349.928 276.68 369.591 260.88C388.691 245.52 420.743 247.96 442.612 260.36C464.528 272.76 478.7 292.64 492.168 311.88C512.207 314.64 531.589 325.08 546.465 336.84C555.194 343.72 562.608 352.08 566.597 361.64C570.586 371.2 570.868 382.08 566.034 391.36C558.056 406.6 536.375 414.96 517.135 411.72C497.941 408.52 482.173 395.04 476.26 379.12C473.585 371.92 463.26 373.76 454.391 373.6C445.568 373.44 439.468 367.8 431.443 364.64Z" fill="white"/>
<path d="M432.053 351.28C437.45 345.4 442.847 339.56 448.243 333.68C465.325 337.64 483.909 339.64 498.832 347.76C513.756 355.88 526.098 368.88 527.74 383.88C519.716 393.56 509.157 402.56 497.096 408.52C484.003 383.04 463.307 359.36 432.053 351.28Z" fill="#E8E8E8"/>
<path d="M519.293 530.28C530.087 526.76 542.476 528 553.082 531.92C563.688 535.84 572.886 542.12 581.38 548.8C616.248 576.28 642.434 611.72 656.419 650.44C665.757 626.12 671.764 599.44 673.266 573.84C674.017 560.96 673.782 547.96 676.504 535.24C679.179 522.52 685.139 509.88 696.308 501.16C707.477 492.44 724.559 488.52 738.309 493.92C746.662 506.64 750.792 522.6 743.518 535.76C735.681 549.96 720.007 559.68 704.614 568.28C696.683 595.24 702.127 623.72 703.91 651.48C705.694 679.24 705.224 708.32 690.254 733C678.147 739 662.425 736.36 649.802 731.08C637.225 725.84 627.182 717.04 618.125 707.92C588.044 677.56 565.846 641.56 553.598 603.2C545.667 578.24 531.26 554.04 519.293 530.28Z" fill="#FF8EE6"/>
<path d="M553.645 603.2C564.016 635.8 581.614 666.68 605.126 693.84C617.139 686.64 628.215 678.44 637.272 668.64C644.311 661.04 650.036 652.32 653.603 643.16C639.055 607.28 614.042 574.56 581.333 548.8C572.839 542.12 563.688 535.8 553.035 531.92C546.606 529.56 539.52 528.2 532.527 528.24C529.805 532.28 527.037 536.36 524.502 540.52C535.249 561 546.84 581.8 553.645 603.2Z" fill="#FFC653"/>
<path d="M398.64 407.44C379.352 407.28 359.83 405.12 342.232 398.36C324.634 391.64 309.147 379.96 301.92 364.76C294.693 349.56 296.805 330.72 309.616 318.44C318.908 309.52 332.987 304.72 346.972 304.64C360.956 304.56 374.706 308.96 385.969 316.04C400.986 325.48 412.531 339.76 430.317 344.44C443.644 347.96 458.286 345.36 471.802 348.36C491.652 352.72 506.247 370.28 504.558 387.68C511.738 391.68 512.958 401.76 513.286 409.08C513.85 422.44 508.5 435.88 498.551 446.2C488.602 456.52 474.148 463.6 458.662 465.72C469.924 455.96 474.946 438.28 470.722 425.08C466.499 411.84 453.64 400.88 438.154 397.32C422.714 393.72 410.091 397.84 398.64 407.44Z" fill="#4600FF"/>
<path d="M440.969 504.36C428.721 515.8 410.184 520.6 392.398 523.64C374.566 526.68 356.029 528.6 340.12 536.08C320.973 545.08 307.786 561.04 296.946 577.24C271.041 615.88 254.382 659.04 248.234 703.24C259.919 718.16 278.08 735.16 297.321 742.44C317.547 708.24 333.503 671.72 342.748 634.24C356.827 690.32 364.476 750.2 368.559 807.44C419.711 823.2 480.765 822.32 531.119 804.8C533.888 746.84 546.09 686.88 568.615 632.16C575.42 615.56 583.21 598.84 584.289 581.28C585.369 563.68 578.329 544.6 561.154 534.8C542.992 524.48 519.106 526.96 497.8 522.92C481.563 519.84 452.655 514.4 440.969 504.36Z" fill="#FFC653"/>
<path d="M501.601 523.56C505.872 538.36 508.828 553.24 509.344 568.56C517.838 572.84 528.022 574.72 537.83 575.52C534.31 559.68 534.404 543.28 538.158 527.48C526.285 525.6 513.615 525.4 501.601 523.56Z" fill="#B58C59"/>
<path d="M358.281 529.8C364.71 558.04 362.786 561.2 371.562 588.92C380.713 581.72 401.033 599.4 398.921 588.92C394.604 567.52 390.334 546.08 386.016 524.68C376.677 526.16 367.292 527.56 358.281 529.8Z" fill="#B58C59"/>
<path d="M167.423 364.36L134.714 373.48C126.407 375.8 122.512 383.88 126.454 390.48L156.019 440C159.21 445.32 166.437 447.88 173.101 446L173.383 445.92L250.956 648C252.129 651.08 255.977 652.72 259.59 651.72C263.204 650.72 265.128 647.44 263.955 644.36L186.382 442.28L186.664 442.2C193.327 440.36 197.41 434.64 196.284 428.72L185.866 373.92C184.458 366.6 175.682 362.04 167.423 364.36ZM156.864 416.28C157.286 417.36 156.582 418.52 155.315 418.88C154.048 419.24 152.687 418.64 152.265 417.56L139.782 385.08C139.359 384 140.063 382.84 141.33 382.48C142.598 382.12 143.958 382.72 144.381 383.8L156.864 416.28ZM161.228 415.08L148.792 382.6C148.37 381.52 149.074 380.36 150.341 380C151.608 379.64 152.969 380.24 153.391 381.32L165.874 413.8C166.297 414.88 165.593 416.04 164.325 416.4C163.058 416.76 161.651 416.16 161.228 415.08ZM174.884 411.28C175.307 412.36 174.603 413.52 173.336 413.88C172.069 414.24 170.708 413.64 170.285 412.56L157.802 380.08C157.38 379 158.084 377.84 159.351 377.48C160.618 377.12 161.979 377.72 162.401 378.8L174.884 411.28ZM183.848 408.76C184.27 409.84 183.566 411 182.299 411.36C181.032 411.72 179.671 411.12 179.249 410.04L166.766 377.56C166.343 376.48 167.047 375.32 168.314 374.96C169.581 374.6 170.942 375.2 171.365 376.28L183.848 408.76Z" fill="#454544"/>
<path d="M249.125 629.8C255.132 654.64 272.637 676.16 284.932 699.28C297.227 722.4 303.797 750.68 288.217 772.28C279.535 784.32 253.677 780 241.945 770.08C230.823 760.64 228.758 746.16 227.351 732.84C223.362 695.6 219.42 658.36 215.431 621.12C198.349 615.84 183.144 599.52 183.66 584.04C184.176 568.56 197.316 554 214.727 549.56C219.185 548.44 224.019 547.92 228.477 549.04C235.985 550.96 241.054 557.24 242.79 563.76C244.526 570.28 243.541 577.04 242.508 583.68C241.711 588.92 244.433 596.68 247.811 601.12C251.19 605.56 255.648 609.56 257.432 614.6C259.215 619.64 255.179 628.64 249.125 629.8Z" fill="#FF8EE6"/>
<path opacity="0.1" d="M566.456 538.32C564.814 537.04 563.031 535.84 561.153 534.76C542.992 524.44 519.105 526.92 497.8 522.88C481.563 519.8 452.655 514.4 440.969 504.32C428.721 515.76 410.184 520.56 392.398 523.6C374.565 526.64 356.029 528.56 340.12 536.04C334.066 538.88 328.669 542.4 323.695 546.4C326.886 547.8 330.03 549.28 333.081 550.8C352.227 560.4 369.92 572.2 389.911 580.4C409.95 588.6 433.461 592.96 454.438 586.6C483.674 577.72 503.056 549.68 533.935 547.04C544.212 546.16 554.536 548.32 564.814 547.48C568.85 547.16 572.792 546.32 576.593 545.08C573.308 542.72 569.929 540.44 566.456 538.32Z" fill="black"/>
<path d="M406.008 466.84C405.773 487.44 405.491 508.04 405.257 528.64C424.31 540.24 452.467 543.2 471.849 532.04C467.437 503 467.203 473.88 467.39 444.6C446.085 453.08 428.393 460.72 406.008 466.84Z" fill="#FF8EE6"/>
<path d="M406.008 466.84C405.773 485.92 405.538 504.96 405.304 524.04C409.199 522.88 413 521.44 416.52 519.84C438.107 509.88 456.08 494.32 467.531 475.84C467.296 465.44 467.343 455.04 467.39 444.6C446.085 453.08 428.393 460.72 406.008 466.84Z" fill="#D174BD"/>
<path d="M370.858 469.12C372.36 477.36 375.504 485.84 382.872 491.32C396.059 501.12 416.66 497.4 432.053 490.32C456.737 478.96 476.682 460.24 487.57 438.16C494.89 423.32 497.8 405.24 487.335 391.8C477.668 379.36 458.568 374.16 441.11 375.24C423.23 376.36 393.384 382.2 384.702 397.24C372.594 418.24 366.728 446.04 370.858 469.12Z" fill="#FF8EE6"/>
<path d="M370.67 405.72C391.835 409 413.657 409.04 434.822 405.88C436.84 415.44 445.193 424 454.579 429.48C455.658 434.8 455.47 439.24 454.626 444.56C456.597 444.44 459.131 443.12 461.149 443C460.445 437.36 460.445 430.68 460.914 425.04C461.102 422.68 461.618 420.08 463.871 418.72C466.686 417 470.816 418.36 473.116 420.6C476.588 424 477.198 428.88 476.682 433.4C475.697 442.64 470.628 451.48 462.744 457.84C464.246 460.52 466.17 463.04 467.672 465.72C489.916 455.44 501.46 433.24 501.554 411.68C501.601 402.04 499.583 392.16 493.623 383.96C486.256 373.76 473.35 367.08 459.694 364.16C446.085 361.24 431.725 361.8 417.834 363.64C406.008 365.24 393.665 368.04 385.265 375.36C375.879 383.56 372.829 394.36 370.67 405.72Z" fill="#4600FF"/>
<path d="M566.081 638.44C555.804 629.2 549.14 617.24 545.151 604.88C540.786 591.4 537.924 577.04 536.516 563.12C527.975 563.44 517.322 564.44 508.781 564.76C508.359 577.24 505.731 590.76 502.587 602.96C474.993 610.64 444.301 614.32 415.299 613.84C407.462 603.52 400.282 590.92 396.856 578.96C388.503 580.92 379.164 584.16 370.811 586.12C378.273 609.8 368.559 636.72 347.253 653.08C358.516 703.6 364.992 756.6 368.605 807.44C419.758 823.2 480.812 822.32 531.166 804.8C533.747 749.04 545.198 691.44 566.081 638.44Z" fill="#7A5E3C"/>
<path d="M389.066 606.96C392.125 606.96 394.604 604.847 394.604 602.24C394.604 599.633 392.125 597.52 389.066 597.52C386.008 597.52 383.529 599.633 383.529 602.24C383.529 604.847 386.008 606.96 389.066 606.96Z" fill="#FFD75D"/>
<path d="M524.549 584.92C527.608 584.92 530.087 582.807 530.087 580.2C530.087 577.593 527.608 575.48 524.549 575.48C521.491 575.48 519.012 577.593 519.012 580.2C519.012 582.807 521.491 584.92 524.549 584.92Z" fill="#FFD75D"/>
<path d="M510.565 746.76C512.066 721.96 508.03 696.04 502.164 671.68C471.849 674.2 441.533 676.76 411.217 679.28C412.531 694.84 413.329 714.36 419.429 729.04C425.53 743.72 437.074 757.44 453.781 763.84C476.729 772.6 509.251 768.16 510.565 746.76Z" fill="#6B5335"/>
<path d="M371.937 450.2C365.508 452.96 358.422 454.28 351.477 455.84C348.614 456.48 345.282 457.6 344.719 460.08C344.297 462.08 346.08 464.04 348.239 464.84C350.397 465.64 352.884 465.56 355.231 465.4C364.1 464.84 373.111 463.48 380.713 459.56C388.315 455.68 394.322 448.8 394.416 441.24C394.463 438.92 393.571 435.6 390.333 435.28C387.048 434.92 386.908 436.84 385.688 438.84C382.59 443.92 377.944 447.6 371.937 450.2Z" fill="url(#paint0_linear_96_196)"/>
<path d="M378.601 439.96C380.312 439.96 381.698 437.023 381.698 433.4C381.698 429.777 380.312 426.84 378.601 426.84C376.891 426.84 375.504 429.777 375.504 433.4C375.504 437.023 376.891 439.96 378.601 439.96Z" fill="#613657"/>
<path d="M414.642 444.8C417.156 444.8 419.194 440.502 419.194 435.2C419.194 429.898 417.156 425.6 414.642 425.6C412.128 425.6 410.09 429.898 410.09 435.2C410.09 440.502 412.128 444.8 414.642 444.8Z" fill="#613657"/>
<path d="M496.157 784.12H323.977C304.267 784.12 288.311 770.52 288.311 753.72V668.04H531.87V753.72C531.87 770.52 515.867 784.12 496.157 784.12Z" fill="#C7C7C7"/>
<path d="M454.25 668.04V753.72C454.25 770.52 438.294 784.12 418.584 784.12H496.204C515.914 784.12 531.87 770.52 531.87 753.72V668.04H454.25Z" fill="#B0B0B0"/>
<path d="M556.273 696.56H527.318C522.907 696.56 519.293 693.48 519.293 689.72C519.293 685.96 522.907 682.88 527.318 682.88H556.273C560.684 682.88 564.298 685.96 564.298 689.72C564.298 693.48 560.731 696.56 556.273 696.56Z" fill="#A6A6A6"/>
<path d="M292.816 696.56H263.861C259.45 696.56 255.836 693.48 255.836 689.72C255.836 685.96 259.45 682.88 263.861 682.88H292.816C297.227 682.88 300.841 685.96 300.841 689.72C300.841 693.48 297.227 696.56 292.816 696.56Z" fill="#A6A6A6"/>
<path opacity="0.46" d="M342.56 668.04H324.727V784.12H342.56V668.04Z" fill="white"/>
<path opacity="0.46" d="M350.304 668.04H345.798V784.12H350.304V668.04Z" fill="white"/>
<path d="M736.854 784.12H121.761V806.44H736.854V784.12Z" fill="#919191"/>
<path d="M711.184 806.44H147.478V1058.36H711.184V806.44Z" fill="#6B6B6B"/>
<path d="M711.184 806.44H147.478L711.184 895.44V806.44Z" fill="#5E5E5E"/>
</g>
<defs>
<linearGradient id="paint0_linear_96_196" x1="344.652" y1="450.344" x2="394.429" y2="450.344" gradientUnits="userSpaceOnUse">
<stop stop-color="#FFC2F2"/>
<stop offset="1" stop-color="#FF8EE6"/>
</linearGradient>
<clipPath id="clip0_96_196">
<rect width="1314" height="1120" fill="white" transform="translate(-245)"/>
</clipPath>
</defs>
</svg>
