<svg width="1085" height="929" viewBox="0 0 1085 929" fill="none" xmlns="http://www.w3.org/2000/svg">
<g clip-path="url(#clip0_123_16064)">
<path d="M-402 0V1191H1085V0H-402Z" fill="white"/>
<path d="M434.438 155.411V156.863L507.045 155.411C484.51 149.675 457.422 154.564 434.438 155.411Z" fill="#F1CCB3"/>
<path d="M403.942 162.673V164.126H456.22V403.778H437.342V397.968H435.89L427.177 419.755C447.049 423.71 463.559 429.719 478.002 444.446L502.688 442.994V155.411C470.432 155.411 435.085 153.351 403.942 162.673Z" fill="#FFC195"/>
<path d="M502.688 155.411V442.994H523.019V233.843V181.555C523.02 173.46 521.712 164.734 527.375 158.316L502.688 155.411Z" fill="#DA8F73"/>
<path d="M523.019 158.316V358.752H524.471V225.128L523.019 158.316Z" fill="#C8785D"/>
<path d="M524.471 158.316V364.562H525.923C532.171 337.834 530.279 310.62 530.279 283.226V158.316H524.471Z" fill="#B56247"/>
<path d="M530.279 158.316V347.133H531.731V225.128L530.279 158.316Z" fill="#F5A793"/>
<path d="M531.731 158.316V159.768L550.609 162.673L531.731 158.316Z" fill="#FEE3CF"/>
<path d="M531.731 159.768V344.228L559.322 322.441C554.35 310.489 556.418 295.94 556.418 283.226V207.699C556.418 198.017 560.986 171.947 553.26 164.949C548.293 160.452 538.058 160.346 531.731 159.768Z" fill="#FFC195"/>
<path d="M318.266 185.912L300.84 194.627C311.602 208.11 306.648 233.474 306.648 249.82V390.706L345.727 387.554L369.091 379.087C379.812 365.124 398.047 358.465 408.104 342.61C440.372 291.737 441.698 222.397 441.698 164.126L376.378 168.195L318.266 185.912Z" fill="#FFE7AF"/>
<path d="M441.698 164.126C441.698 221.663 439.616 287.67 409.694 338.651C399.749 355.598 377.988 363.528 369.091 379.087L344.323 387.554L306.648 390.706V200.437H305.196V406.683C327.122 402.702 355.878 402.702 377.804 406.683C381.9 373.264 430.026 370.705 437.342 403.778H456.22V164.126H441.698Z" fill="#FFD5A3"/>
<path d="M457.672 164.126V403.778H463.48V164.126H457.672Z" fill="#D39174"/>
<path d="M556.418 164.126V320.989L582.557 315.179V281.773C564.382 281.616 564.479 251.972 582.557 254.177C582.557 230.122 576.156 195.209 585.461 172.84L556.418 164.126Z" fill="#FFE7AF"/>
<path d="M582.557 174.293V255.629H584.009C584.009 230.143 588.847 199.019 582.557 174.293Z" fill="#B4B091"/>
<path d="M584.009 174.293V316.632C550.506 317.178 525.397 342.842 524.471 376.182H649.355C648.738 354.601 637.712 335.669 618.86 324.797C611.176 320.366 592.992 319.142 589.553 310.322C585.5 299.932 588.365 284.09 588.365 273.059C588.365 241.449 593.199 205.292 586.913 174.293H584.009Z" fill="#373F51"/>
<path d="M588.365 175.745V315.179H589.817V223.676L588.365 175.745Z" fill="#655D53"/>
<path d="M589.817 175.745V315.179C608.264 317.195 625.658 326.523 637.133 341.323C639.294 344.11 645.195 356.931 647.903 352.943H649.355L650.808 355.848L675.645 307.869L690.016 252.724V251.272L672.59 232.39L642.108 208.281L589.817 175.745Z" fill="#FFE7AF"/>
<path d="M271.797 207.699C278.565 244.997 273.249 287.454 273.249 325.346C273.249 363.239 278.565 405.694 271.797 442.994H353.117C363.914 432.163 376.715 422.596 392.325 421.207V419.755L379.256 405.23L305.196 406.683V196.079L271.797 207.699Z" fill="#FFC195"/>
<path d="M268.893 209.151V210.604C277.698 228.871 271.797 260.245 271.797 280.321V441.541H273.249V209.151H268.893Z" fill="#DF9977"/>
<path d="M265.988 210.604V361.657L264.536 442.994H271.797V210.604H265.988Z" fill="#B76749"/>
<path d="M245.658 442.994H264.536V291.94L265.988 212.056C238.1 221.862 245.658 248.026 245.658 273.059V442.994Z" fill="#DA8F73"/>
<path d="M264.536 213.509V441.541H265.988V289.035C265.988 265.314 270.394 236.536 264.536 213.509Z" fill="#C8785D"/>
<path d="M215.163 244.01C209.818 253.166 213.705 268.537 213.711 278.868V364.562C213.711 374.495 216.852 391.127 212.005 400.08C206.947 409.421 183.393 405.23 174.503 405.23H59.7832V331.156H58.3311V403.778H52.5225V334.061L30.7402 345.68V347.133L33.6445 379.087V442.994H245.658V222.223C234.726 225.769 216.93 231.053 215.163 244.01Z" fill="#FFC195"/>
<path d="M193.381 251.272V252.724C206.799 259.989 203.287 288.624 189.024 278.868H187.572C184.277 326.581 151.621 370.851 105.811 385.596C92.0078 390.038 76.9839 389.254 62.6875 389.254L59.7832 403.778V405.231H174.503C182.785 405.231 207.046 409.351 212.005 401.138C217.523 391.997 213.711 372.08 213.711 361.657V281.773C213.711 270.02 210.828 255.042 215.163 244.01V242.557L213.711 239.652L193.381 251.272Z" fill="#FFD5A3"/>
<path d="M109.156 296.298C98.2898 309.494 71.6124 323.689 55.4268 329.704V331.156H59.7832V403.778H62.6875V389.254C112.358 389.254 157.305 370.116 177.449 320.986C182.073 309.711 186.21 296.886 187.157 284.678C187.812 276.223 184.391 266.685 188.891 258.887C192.584 252.486 200.403 249.194 206.45 245.462C197.161 245.054 189.766 251.294 181.769 255.291C158.009 267.166 135.244 290.001 109.156 296.298Z" fill="#FFE7AF"/>
<path d="M570.939 257.082H578.2L572.392 265.796L570.939 258.534C568.571 264.332 567.643 270.909 570.515 276.804C572.448 280.77 577.897 283.664 580.868 278.937C585.334 271.828 582.705 244.897 570.939 257.082Z" fill="#D39174"/>
<path d="M191.547 255.266C183.268 260.271 186.145 286.825 196.796 281.808C207.359 276.833 203.512 248.033 191.547 255.266Z" fill="#DA8F73"/>
<path d="M322.623 255.266C312.904 261.355 318.457 288.649 330.038 280.672C339.055 274.462 334.321 247.937 322.623 255.266Z" fill="#D39174"/>
<path d="M688.563 252.724C683.649 269.703 682.788 288.743 676.463 305.012C672.901 314.171 666.048 322.24 662.908 331.156C661.211 335.981 653.024 356.527 647.903 352.943L650.808 377.634H611.6C600.887 404.517 570.852 407.849 562.227 377.634H556.418V405.23C593.74 405.23 630.912 403.778 668.233 403.778C676.515 403.778 700.776 407.899 705.735 399.685C710.247 392.211 707.441 377.363 707.441 368.92V306.465C707.441 296.03 705.71 284.126 710.346 274.511V273.059L688.563 252.724Z" fill="#FFD5A3"/>
<path d="M569.487 255.629L575.296 265.796L572.392 258.534L576.748 262.891H578.2V257.082L569.487 255.629Z" fill="#EDB79D"/>
<path d="M582.557 255.629V280.321H584.009L582.557 255.629Z" fill="#957B6D"/>
<path d="M189.024 264.344H194.833V258.534L189.024 264.344ZM321.17 258.534V264.344H325.526V258.534H321.17Z" fill="#FCF5D3"/>
<path d="M325.526 258.534V264.344H326.979L325.526 258.534Z" fill="#EDC3B1"/>
<path d="M572.392 258.534L576.748 264.344V258.534H572.392Z" fill="#FEE3CF"/>
<path d="M707.441 274.511V405.231H714.702V310.822C714.702 298.7 717.97 282.847 707.441 274.511Z" fill="#DA8F73"/>
<path d="M582.557 280.321V315.179H575.296V316.632H584.009L582.557 280.321Z" fill="#B4B091"/>
<path d="M714.702 281.773V405.23L707.441 402.326L644.999 403.778L556.418 405.23V377.634H531.731V442.994H732.128C732.128 398.214 725.585 347.62 733.58 303.56L714.702 281.773Z" fill="#FFC195"/>
<path d="M732.128 305.012V442.994H752.458V367.467C752.459 357.679 755.612 344.867 752.995 335.513C750.033 324.928 740.273 312.274 732.128 305.012Z" fill="#DA8F73"/>
<path d="M589.817 315.179V316.632H595.626L589.817 315.179Z" fill="#AFA589"/>
<path d="M604.339 318.084V319.537H608.695L604.339 318.084Z" fill="#9F9787"/>
<path d="M618.377 324.378L619.344 324.863L618.377 324.378Z" fill="#9EA288"/>
<path d="M52.5224 403.778H58.331V331.156C50.6288 334.208 52.5224 342.928 52.5224 350.038V403.778Z" fill="#DA8F73"/>
<path d="M753.91 339.871L752.458 442.994C761.261 439.505 758.266 426.247 758.266 418.302C758.266 393.965 763.202 363.354 756.814 339.871H753.91Z" fill="#B56247"/>
<path d="M758.267 344.228L756.814 442.994L759.719 415.398L758.267 344.228Z" fill="#D38365"/>
<path d="M759.719 345.68V442.994H777.144C777.144 409.605 783.153 372.967 759.719 345.68Z" fill="#FFC195"/>
<path d="M26.3839 442.994H33.6446V347.133C24.5687 352.986 26.3853 363.617 26.3839 373.277V442.994Z" fill="#B76749"/>
<path d="M6.05371 442.994H26.3838L27.8359 350.038L8.28711 364.026L6.05371 389.254V442.994Z" fill="#DA8F73"/>
<path d="M645.482 355.364L645.968 356.331L645.482 355.364Z" fill="#9C907E"/>
<path d="M4.60151 364.562C-3.54795 369.466 -14.8428 375.194 -19.372 383.996C-26.9261 398.676 -21.5372 426.689 -21.5372 442.994H6.05366C6.05366 418.384 10.6773 388.443 4.60151 364.562Z" fill="#FFC195"/>
<path d="M523.019 371.824V377.634H649.355V376.182H560.774C548.883 376.182 533.166 379.084 523.019 371.824Z" fill="#676767"/>
<path d="M649.355 371.824V377.634H650.808L649.355 371.824Z" fill="#C5AD8B"/>
<path d="M523.019 377.634V442.994H530.279V377.634H523.019Z" fill="#B56247"/>
<path d="M530.279 377.634V442.994H531.731L530.279 377.634Z" fill="#F5A793"/>
<path d="M562.227 377.634C568.593 408.382 603.129 405.566 611.6 377.634H599.982C596.194 390.886 585.375 389.31 573.844 387.801C572.493 380.432 569.573 378.34 562.227 377.634Z" fill="white"/>
<path d="M572.392 377.634L573.844 387.801C585.268 389.618 597.279 391.445 599.982 377.634H572.392Z" fill="#FCF5D3"/>
<path d="M777.144 377.634V442.994H479.454C482.625 455.234 487.734 466.493 483.439 479.292C480.45 488.197 473.423 493.848 468.471 501.487C461.45 512.316 455.932 524.718 449.503 535.978C446.262 541.654 437.545 548.951 438.084 555.928C438.554 562.026 445.819 566.422 450.411 569.356L446.055 579.523H447.507L451.863 569.356H453.315C472.151 593.352 501.538 596.823 502.688 633.263H504.141C516.522 627.292 534.226 630.359 547.705 630.359H643.547V628.906H614.504L615.956 557.737H644.999V628.906L714.702 630.359V643.431H505.593C503.06 649.952 498.946 651.548 492.523 653.598V655.05L499.784 653.598L502.688 723.315H732.128C769.554 723.315 811.459 718.079 848.3 724.767C848.534 695.307 851.179 665.772 849.624 636.25C846.143 570.206 830.178 501.263 805.466 439.958C796.971 418.883 789.366 396.982 777.144 377.634Z" fill="#F3E5DB"/>
<path d="M402.49 379.087V380.539H414.107L402.49 379.087Z" fill="#9C907E"/>
<path d="M395.229 380.539V381.991H399.586L395.229 380.539Z" fill="#A38787"/>
<path d="M396.682 419.755V422.66C369.895 422.728 345.864 440.953 336.351 466.233C328.361 487.466 333.989 516.906 356.021 527.235C357.24 520.988 359.848 514.778 359.774 508.354C359.679 500.175 354.379 488.965 361.563 482.297C379.915 465.263 415.14 471.958 437.342 472.035C443.815 472.057 457.977 468.515 463.232 472.773C468.406 476.965 468.246 490.526 469.289 496.734C489.003 487.405 488.98 457.958 476.45 442.589C465.023 428.573 444.605 422.308 427.177 421.207C430.392 416.212 433.848 411.186 434.946 405.226C439.694 379.472 400.816 374.007 385.918 387.704C373.356 399.252 382.542 416.205 396.682 419.755Z" fill="#0D0745"/>
<path d="M417.98 381.023L418.947 381.508L417.98 381.023Z" fill="#8F6E7F"/>
<path d="M393.294 382.475L394.261 382.96L393.294 382.475Z" fill="#634B51"/>
<path d="M423.789 382.475L424.756 382.96L423.789 382.475Z" fill="#B19D97"/>
<path d="M-22.9893 383.444C-38.9324 396.979 -69.3593 412.677 -76.7187 432.827L-85.4316 441.541C-100.843 447.082 -115.872 471.138 -124.718 484.497C-157.746 534.373 -167.519 591.939 -166.726 650.693C-166.489 668.205 -163.919 685.55 -162.683 702.98C-162.289 708.539 -163.806 718.166 -158.178 721.608C-151.349 725.785 -138.156 723.315 -130.448 723.315H-62.1973H191.929C197.111 687.596 198.853 644.687 213.711 611.477C206.408 600.065 217.154 586.777 223.591 576.904C239.356 552.733 255.498 541.083 284.866 539.08C293.469 538.493 304.181 537.189 311.005 543.212H312.457L353.117 530.14C339.837 507.967 324.285 490.245 337.158 463.328C340.926 455.449 347.07 448.933 351.665 441.541C310.736 448.185 265.333 442.994 223.876 442.994H-21.5371L-22.9893 383.444Z" fill="#F3E5DB"/>
<path d="M434.921 393.127L435.406 394.095L434.921 393.127Z" fill="#957170"/>
<path d="M379.256 393.611V397.968H380.708L379.256 393.611Z" fill="#5F4E60"/>
<path d="M377.804 397.968V405.23H379.256L377.804 397.968Z" fill="#A18381"/>
<path d="M379.74 407.652L380.224 408.619L379.74 407.652Z" fill="#957170"/>
<path d="M385.064 421.207V422.66L396.682 419.755L385.064 421.207Z" fill="#3B2743"/>
<path d="M427.177 419.755V421.207H431.533L427.177 419.755Z" fill="#8F6E7F"/>
<path d="M383.129 421.691L384.096 422.176L383.129 421.691Z" fill="#9B7583"/>
<path d="M436.858 421.691L437.825 422.176L436.858 421.691Z" fill="#917288"/>
<path d="M441.698 422.66V424.112H446.055L441.698 422.66Z" fill="#9D7A7B"/>
<path d="M455.736 427.501L456.703 427.986L455.736 427.501Z" fill="#A38787"/>
<path d="M458.64 428.953L459.608 429.438L458.64 428.953Z" fill="#9D7A7B"/>
<path d="M461.545 430.406L462.512 430.891L461.545 430.406Z" fill="#AD8B8F"/>
<path d="M477.033 442.51L477.518 443.478L477.033 442.51Z" fill="#5F4E60"/>
<path d="M502.688 442.994V444.446H759.719C734.161 437.941 701.838 442.994 675.494 442.994H502.688Z" fill="#FDD9C7"/>
<path d="M482.842 454.13L483.327 455.097L482.842 454.13Z" fill="#4E4162"/>
<path d="M483.811 456.066V460.423H485.263L483.811 456.066Z" fill="#ACA8B4"/>
<path d="M339.079 458.487L339.564 459.454L339.079 458.487ZM337.627 461.392L338.112 462.359L337.627 461.392Z" fill="#595076"/>
<path d="M336.175 462.844L336.66 463.812L336.175 462.844Z" fill="#B9ADCB"/>
<path d="M334.723 468.654L335.208 469.621L334.723 468.654Z" fill="#4E4162"/>
<path d="M460.576 469.138V470.59H464.933L460.576 469.138Z" fill="#684A5B"/>
<path d="M399.586 470.59V472.043H422.82L399.586 470.59Z" fill="#493147"/>
<path d="M455.736 471.074L456.703 471.559L455.736 471.074Z" fill="#75576C"/>
<path d="M472.193 498.187L464.933 470.59C440.263 472.519 415.385 470.146 390.873 472.873C382.446 473.81 368.703 475.919 362.086 481.704C355.455 487.501 360.509 500.949 360.346 508.354C360.183 515.75 357.08 522.675 357.169 530.14C357.394 549.111 370.992 576.496 392.325 576.335C439.489 575.979 447.951 526.227 472.193 498.187Z" fill="#FDC09F"/>
<path d="M464.933 470.59V480.757H466.385L464.933 470.59Z" fill="#533149"/>
<path d="M333.271 473.011L333.756 473.979L333.271 473.011Z" fill="#6B617E"/>
<path d="M383.612 472.043V473.495H392.325L383.612 472.043Z" fill="#89656D"/>
<path d="M427.177 472.043V473.495H446.055L427.177 472.043Z" fill="#5C3C54"/>
<path d="M377.32 473.979L378.287 474.464L377.32 473.979Z" fill="#684A5B"/>
<path d="M484.294 477.369L484.779 478.336L484.294 477.369Z" fill="#978FA1"/>
<path d="M362.799 478.336L363.766 478.821L362.799 478.336Z" fill="#917288"/>
<path d="M331.335 479.305V490.924H332.787L331.335 479.305Z" fill="#776B83"/>
<path d="M366.187 479.305V480.757H370.543L366.187 479.305Z" fill="#855959"/>
<path d="M464.933 480.757V485.115H466.385L464.933 480.757Z" fill="#A37F8D"/>
<path d="M357.474 482.21V486.567H358.926L357.474 482.21Z" fill="#5C3C54"/>
<path d="M466.868 486.083L467.353 487.051L466.868 486.083Z" fill="#6F4D69"/>
<path d="M357.474 486.567V499.639H358.926L357.474 486.567Z" fill="#AD8187"/>
<path d="M478.002 489.472L479.454 490.924L478.002 489.472Z" fill="#796781"/>
<path d="M332.787 495.282V499.639H334.239L332.787 495.282Z" fill="#776B83"/>
<path d="M-54.9365 499.639V501.091H200.642C175.084 494.587 142.76 499.639 116.417 499.639H-54.9365Z" fill="#FDCFB8"/>
<path d="M-54.9365 501.091V511.259C-40.7665 511.259 -20.8343 507.748 -8.46777 515.616H-7.01562L-8.46777 511.259C10.6512 511.259 32.6585 508.31 51.0703 514.163C50.0509 509.067 67.3779 511.259 74.3047 511.259H135.295C141.803 511.259 156.835 509.322 155.625 514.163C162.726 513.24 165.815 514.83 168.694 521.426H200.642V519.973H170.146L168.694 511.259H200.642V501.091H-54.9365Z" fill="#DA8F73"/>
<path d="M359.409 502.06L359.894 503.028L359.409 502.06ZM360.378 505.449V511.259H361.83L360.378 505.449Z" fill="#75576C"/>
<path d="M-7.01566 521.426H36.5488C36.5488 546.316 43.0355 569.719 42.308 594.032C41.9726 605.278 33.5399 613.198 33.964 624.544C34.3168 634.016 44.4499 649.246 52.6647 635.57C60.8606 621.926 48.6205 611.162 47.0594 598.351C43.8502 572.01 59.8674 545.25 50.928 518.988C47.8973 510.088 40.0935 512.078 38.0009 519.973H-7.01566C-16.6739 498.203 -21.5255 530.896 -21.5357 538.855C-21.5749 569.225 -8.99492 606.043 -18.4106 636.032C-24.5256 655.505 -48.8854 668.298 -42.0037 692.568C-36.397 712.341 11.9886 710.773 14.4326 689.757C15.9442 676.751 9.53592 661.477 1.67689 651.336C-3.27929 644.941 -10.7535 640.103 -12.3189 631.68C-19.0627 595.361 -7.01566 557.764 -7.01566 521.426Z" fill="#BEB5B2"/>
<path d="M-8.46777 511.259L-7.01562 519.973H38.001L39.4531 511.259H-8.46777Z" fill="#B36555"/>
<path d="M49.6182 511.259L52.5225 519.973H96.0869L97.5391 511.259H49.6182Z" fill="#B56247"/>
<path d="M101.896 567.904V627.454C78.6133 636.032 83.0176 674.184 83.0176 694.266H128.034C128.034 677.07 129.401 654.688 121.771 638.942C118.118 631.406 107.218 628.703 105.262 621.558C101.867 609.166 102.943 586.396 105.127 573.735C106.126 567.936 110.17 563.803 110.545 557.731C111.05 549.533 114.974 515.465 106.039 512.198C101.215 510.436 96.8726 513.988 95.9331 518.585C94.0235 527.925 92.3259 564.538 101.896 567.904Z" fill="#BEB5B2"/>
<path d="M109.156 511.259L110.608 519.973H155.625L157.077 511.259H109.156Z" fill="#B56247"/>
<path d="M139.651 694.266H184.668C184.662 680.697 185.17 664.834 179.475 652.19C175.909 644.273 166.503 640.391 164.843 631.657C159.851 605.381 168.581 580.178 170.02 554.832C170.453 547.212 174.13 514.617 162.558 513.561C151.549 512.557 155.491 548.107 155.67 554.819C156.341 579.95 164.413 605.91 159.476 631.602C157.892 639.85 149.102 642.563 145.569 649.757C139.129 662.87 139.657 680.025 139.651 694.266Z" fill="#BEB5B2"/>
<path d="M168.694 511.259L170.146 519.973H200.642V511.259H168.694Z" fill="#B56247"/>
<path d="M527.487 516.349C520.769 521.529 539.942 524.48 544.237 520.741C550.248 515.513 531.488 513.263 527.487 516.349Z" fill="#D7CEC6"/>
<path d="M51.0703 515.616V521.426H94.6348V519.973C81.4217 519.973 62.3027 523.651 51.0703 515.616Z" fill="#D09E8A"/>
<path d="M342.952 517.068L344.404 518.521L342.952 517.068Z" fill="#747086"/>
<path d="M357.957 518.037L358.442 519.004L357.957 518.037Z" fill="#AD8187"/>
<path d="M110.608 519.973V521.426H155.625L110.608 519.973Z" fill="#D09E8A"/>
<path d="M356.021 519.973V527.235H357.474L356.021 519.973Z" fill="#B98993"/>
<path d="M512.853 628.906H556.418V534.498C544.459 524.782 519.53 514.695 513.713 537.831C506.869 565.047 512.853 600.832 512.853 628.906Z" fill="white"/>
<path d="M354.086 527.719L355.053 528.204L354.086 527.719Z" fill="#957170"/>
<path d="M353.117 528.688C347.914 557.771 373.099 598.528 403.942 599.857L406.847 573.713C374.488 581.355 362.863 556.554 356.021 528.688H353.117Z" fill="#F7AC8A"/>
<path d="M691.468 528.688C683.593 547.992 685.375 563.613 685.659 583.881H695.824C700.364 563.497 700.15 548.868 694.372 528.688H691.468Z" fill="#69971F"/>
<path d="M348.761 531.593L321.17 589.69L325.526 588.238C346.893 613.689 375.351 606.286 403.942 611.477V599.857C381.707 598.271 365.025 577.481 357.599 557.735C354.439 549.331 353.846 539.006 348.761 531.593Z" fill="#FDC09F"/>
<path d="M252.919 727.672H254.371L257.275 724.767C263.103 782.096 315.679 834.618 367.639 854.034V855.487C343.047 851.565 322.398 836.123 300.84 824.985C309.503 847.109 311.252 860.367 329.801 877.093C336.403 883.044 344.137 890.957 353.941 887.761C365.427 884.018 368.299 867.825 379.673 863.61C384.651 861.764 390.135 863.535 395.229 862.113C407.908 858.576 418.332 846.824 425.725 836.605V835.152C393.302 811.738 354.195 790.904 329.883 758.173L299.388 734.934C332.247 745.623 363.307 765.132 398.134 768.929C410.342 770.259 422.343 766.738 434.437 765.435C436.122 752.609 441.495 740.555 442.78 727.672C444.61 709.326 440.57 693.126 436.903 675.384C434.175 662.184 431.33 646.543 417.012 641.978L422.82 566.451L406.847 572.261C405.532 589.27 403.861 606.249 401.172 623.096C400.27 628.742 400.617 637.404 396.297 641.724C390.138 647.881 375.329 644.614 367.639 643.95C344.131 641.918 322.682 638.726 299.388 634.716L350.213 533.045C322.715 535.492 315.289 568.36 304.893 589.69C299.134 601.509 293.867 615.17 285.72 625.561C278.166 635.194 267.494 640.661 261.916 652.147C249.345 678.038 251.792 700.238 252.919 727.672Z" fill="#6DAD9D"/>
<path d="M250.015 652.145C274.652 631.332 304.955 607.236 312.06 573.713C314.313 563.089 311.006 549.837 311.005 538.855C290.84 538.855 263.659 536.733 246.069 548.618C236.385 555.161 228.905 567.221 222.711 576.904C217.877 584.464 208.132 597.162 210.529 606.666C212.736 615.42 223.032 621.721 229.515 627.183C237.983 634.318 244.396 642.653 250.015 652.145Z" fill="white"/>
<path d="M313.909 570.809H315.361L329.883 540.307C309.13 540.383 308.892 552.89 313.909 570.809Z" fill="#F1BFA7"/>
<path d="M615.956 556.284H644.999C639.866 538.586 621.576 539.601 615.956 556.284Z" fill="#D3CECB"/>
<path d="M669.686 546.117V569.356L659.521 564.999C660.082 583.423 669.487 583.878 685.659 583.881L684.207 557.737H682.755L681.303 560.642L674.042 546.117H669.686Z" fill="#85B735"/>
<path d="M668.233 549.022L663.877 564.999V566.451L669.686 569.356L668.233 549.022Z" fill="#D9F1A7"/>
<path d="M682.755 549.022V557.737H684.207L682.755 549.022Z" fill="#B1C583"/>
<path d="M700.181 553.379V569.356C707.099 566.977 715.072 560.472 721.963 564.999H723.415V559.189L701.633 567.904L700.181 553.379Z" fill="#A9C367"/>
<path d="M419.916 564.999L421.368 588.238C430.967 581.477 446.926 569.904 437.342 557.737L419.916 564.999Z" fill="#F7AC8A"/>
<path d="M615.956 557.737L614.504 628.906H644.999V557.737H615.956Z" fill="white"/>
<path d="M695.824 583.881C712.832 583.818 719.397 577.655 721.963 560.641C708.809 563.302 698.313 570.178 695.824 583.881Z" fill="#8BC741"/>
<path d="M570.939 578.071H599.982C595.099 561.27 574.992 560.117 570.939 578.071Z" fill="#D3CECB"/>
<path d="M658.068 563.546V572.261H659.521L663.877 564.999L658.068 563.546Z" fill="#BDD997"/>
<path d="M443.15 564.999C433.579 577.957 421.624 585.551 421.368 602.762C435.528 595.464 443.831 583.453 450.411 569.356L446.055 564.999H443.15Z" fill="#FDC09F"/>
<path d="M100.443 567.904V627.454H101.896L100.443 567.904Z" fill="#D7CEC6"/>
<path d="M451.863 569.356C444.392 582.825 433.861 595.745 419.916 602.762L421.432 634.668L434.571 657.968L441.698 688.456C451.801 679.365 459.631 668.091 472.199 662.107C480.639 658.09 497.342 656.691 503.147 648.929C507.08 643.673 503.627 633.335 502.809 627.454C498.514 596.514 474.074 586.698 451.863 569.356Z" fill="white"/>
<path d="M405.395 575.166L403.942 596.952H405.395V575.166Z" fill="#D7BDA3"/>
<path d="M570.939 579.523V628.906H599.982V579.523H570.939Z" fill="white"/>
<path d="M663.877 583.881V585.333H713.25L663.877 583.881Z" fill="#BDD997"/>
<path d="M662.425 586.785L666.781 628.906C676.563 628.906 699.397 633.134 707.187 626.543C713.751 620.987 713.035 595.231 713.25 586.785H662.425ZM353.117 639.073V643.431C378.816 643.429 401.353 639.936 402.49 610.024C372.923 610.024 348.437 609.513 325.526 588.238C294.972 606.587 331.151 636.786 353.117 639.073Z" fill="white"/>
<path d="M311.005 607.12L299.388 634.716L353.117 641.978V639.073C332.218 635.988 322.785 623.131 311.005 607.12Z" fill="#DAF0F0"/>
<path d="M210.807 612.929C207.83 644.823 198.824 677.012 193.92 708.79C191.471 724.652 187.23 743.075 191.887 758.969C196.788 775.694 211.761 787.902 222.184 801.21C231.024 812.497 242.845 825.864 255.823 832.248C255.961 861.966 273.869 875.642 302.292 880.178L287.181 855.909L283.414 835.152C295.708 841.109 292.197 860.171 309.553 858.391C307.434 847.216 307.402 834.952 300.294 825.452C293.064 815.788 281.13 810.977 273.709 801.058C265.49 790.072 259.52 773.69 247.11 766.888L239.883 740.737L242.667 678.289L236.81 656.502L222.424 621.644L210.807 612.929Z" fill="#FDC09F"/>
<path d="M289.223 612.929C278.978 627.626 247.244 641.929 255.823 662.312H257.276L293.579 612.929H289.223ZM418.464 615.834L417.012 641.978L424.273 643.43L418.464 615.834Z" fill="#DAF0F0"/>
<path d="M219.52 621.644L242.099 676.883L239.977 705.967L244.206 759.626H245.658V697.171H250.015C250.44 686.256 256.423 673.903 255.335 663.37C253.649 647.041 234.774 626.325 219.52 621.644Z" fill="#F7AC8A"/>
<path d="M643.547 628.906V630.359H666.781L643.547 628.906Z" fill="#EDC3B1"/>
<path d="M504.141 630.359L505.593 641.978H713.25V630.359H504.141Z" fill="#D39174"/>
<path d="M713.25 630.359V641.978H505.593V643.431H714.702L713.25 630.359Z" fill="#E2BDA6"/>
<path d="M398.134 631.811L369.091 643.43V644.883C380.181 644.883 401.726 648.971 398.134 631.811Z" fill="#DAF0F0"/>
<path d="M504.141 634.716V641.978H505.593L504.141 634.716Z" fill="#FDD9C7"/>
<path d="M453.315 639.073L463.48 640.526L453.315 639.073Z" fill="#E6DFDA"/>
<path d="M332.787 641.978V643.431H353.117L332.787 641.978Z" fill="#9FC5BD"/>
<path d="M90.2783 643.431V687.004H96.0869V643.431H90.2783Z" fill="#F1E8E1"/>
<path d="M101.896 643.431V687.004H106.252V643.431H101.896Z" fill="#E6DFDA"/>
<path d="M112.061 643.431V685.551H116.417V643.431H112.061Z" fill="#F1E8E1"/>
<path d="M116.417 643.431L113.513 688.456C121.671 679.211 119.317 654.826 116.417 643.431Z" fill="#D7CEC6"/>
<path d="M219.52 643.431C200.061 655.574 202.599 694.552 198.905 714.403C197.672 721.02 192.529 735.98 201.522 739.485C212.806 743.884 222.152 727.418 224.723 718.937C231.403 696.899 231.478 663.484 219.52 643.431Z" fill="#FFCDB5"/>
<path d="M427.177 646.335L443.15 689.909C438.212 674.43 439.262 658.816 427.177 646.335Z" fill="#DAF0F0"/>
<path d="M495.428 653.598V655.05L498.332 666.67C434.04 671.323 459.048 757.746 450.757 798.833C448.114 811.928 434.195 821.556 428.629 833.7L431.533 836.605H432.985C441.903 822.236 452.788 817.775 469.289 817.723C484.798 849.415 435.013 868.927 409.751 871.463L411.203 859.844L418.464 848.224L395.229 861.395L372.471 867.773L358.249 887.593L354.569 903.417V904.869H360.378L366.187 915.037C400.257 915.029 428.343 889.995 453.157 868.73C463.634 859.751 476.345 850.136 480.906 836.605C502.983 825.154 504.141 801.693 504.141 779.96C504.141 737.743 500.047 695.516 499.784 653.598H495.428Z" fill="#FDC09F"/>
<path d="M297.936 655.05C303.91 691.856 357.662 702.635 387.969 699.39C398.996 698.211 418.65 696.777 423.684 684.732C429.947 669.75 391.118 663.823 382.112 662.271C371.025 660.362 359.915 659.407 348.761 658.042C331.682 655.953 315.139 655.05 297.936 655.05Z" fill="#7DBFAF"/>
<path d="M450.411 778.507H451.863C451.863 739.457 445.131 672.69 498.332 666.669V655.05C477.47 656.531 450.567 668.25 442.689 689.54C440.155 696.385 443.1 705.929 443.143 713.148C443.277 735.64 444.533 756.692 450.411 778.507Z" fill="#F7AC8A"/>
<path d="M257.275 659.407L252.919 678.289H254.371L257.275 659.407Z" fill="#99A78F"/>
<path d="M-2.65918 663.765V695.718H3.14942C3.14942 686.832 7.1138 667.637 -2.65918 663.765Z" fill="#F3E5DB"/>
<path d="M271.797 666.669C268.098 674.277 254.252 701.262 269.492 705.498C289.674 711.107 277.565 673.406 274.701 666.669H271.797Z" fill="#7DBFAF"/>
<path d="M492.523 673.932L483.811 682.646C481.618 691.47 474.636 697.329 472.225 705.98C466.105 727.945 466.584 757.172 466.398 779.96C466.35 785.989 464.952 794.942 468.35 800.294C475.366 811.34 489.849 797.565 492.523 790.127H496.88C504.772 752.22 495.429 712.296 495.428 673.932H492.523Z" fill="#FFCDB5"/>
<path d="M245.658 697.171V724.767H247.11L248.562 697.171H245.658Z" fill="#F1CCB3"/>
<path d="M248.562 697.171L247.11 724.767H252.919L248.562 697.171Z" fill="#F1E8E1"/>
<path d="M-160.943 723.315V724.767H190.477L151.269 723.315H77.209H-160.943ZM504.141 723.315V724.767H845.396V736.387H846.848V723.315H504.141Z" fill="#CFDBD5"/>
<path d="M-160.943 724.767C-158.138 761.091 -154.065 798.648 -143.663 833.7C-137.828 853.363 -128.473 871.202 -121.735 890.345H-120.283V885.988H-76.7187C-79.5069 876.072 -81.4832 860.569 -87.7783 852.383C-91.8705 847.064 -103.796 844.842 -103.8 836.858C-103.804 830.429 -90.2833 827.006 -86.0779 823.141C-63.5783 802.461 -32.3222 797.393 -2.65917 797.389V790.127C-36.1385 781.527 19.7911 760.202 20.0771 782.509C20.141 787.549 11.8391 791.796 10.4102 797.389C36.4327 797.498 65.7777 801.642 87.3682 817.216C99.3673 825.873 124.76 837.783 102 849.065C99.1451 850.481 96.1813 851.526 93.1826 852.582L83.0176 887.44H226.78L245.658 823.533C226.891 808.13 198.828 781.465 191.887 757.653C188.901 747.411 190.477 735.336 190.477 724.767H-160.943ZM245.658 724.767L247.11 766.888L251.467 771.245C254.715 759.797 260.691 728.78 245.658 724.767Z" fill="#A5C7D1"/>
<path d="M254.371 724.767C254.371 738.735 250.337 758.047 254.66 771.245C268.026 812.048 325.818 850.84 367.639 855.487V854.034C315.7 829.757 265.771 784.398 257.275 724.767H254.371Z" fill="#5B9587"/>
<path d="M504.141 724.767C504.141 760.969 515.051 812.727 480.906 836.605C475.956 847.219 467.152 856.059 457.672 862.749L463.735 885.077L489.619 887.44H556.418C555.323 880.448 544.547 855.847 549.179 851.311C556.129 844.505 576.474 848.224 585.461 848.224H679.851C691.506 848.224 706.961 845.138 711.798 858.391C705.818 860.755 694.981 885.453 703.419 888.294C710.424 890.652 720.437 888.893 727.772 888.893C749.619 888.893 774.673 885.529 796.023 890.345C821.734 838.406 845.34 783.932 845.396 724.767H504.141ZM441.698 732.029C437.55 752.289 431.204 770.539 433.855 791.579C434.923 800.054 436 809.698 444.603 813.366C452.264 788.773 448.719 756.76 441.698 732.029Z" fill="#A5C7D1"/>
<path d="M299.388 734.934C302.295 743.027 321.437 756.941 329.883 758.173C343.546 782.82 375.955 801.02 398.214 816.936C404.414 821.37 416.447 832.829 424.36 832.635C430.816 832.477 433.848 822.499 435.89 817.723C423.575 810.083 411.881 798.045 406.847 784.317L432.985 785.769L434.438 765.435L393.777 768.143L299.388 734.934Z" fill="#5B9587"/>
<path d="M213.711 784.317C224.525 791.896 233.132 804.802 242.481 814.314C245.275 817.158 250.07 823.571 254.783 822.351C262.628 820.32 252.942 806.019 251.056 802.792C240.817 785.284 225.356 771.691 213.711 755.268C193.758 757.544 209.813 773.913 213.711 784.317Z" fill="#FFCDB5"/>
<path d="M447.507 766.888L444.603 811.913H446.055C453.413 797.931 451.988 781.79 447.507 766.888Z" fill="#D3B5B1"/>
<path d="M-7.01562 772.698V774.15H11.8623L-7.01562 772.698Z" fill="#899BB3"/>
<path d="M-2.65927 790.127L-1.20712 804.651C8.9129 803.052 31.684 778.647 11.8099 774.744C5.50469 773.505 -4.60517 772.979 -10.3353 776.362C-20.8954 782.599 -9.00807 788.921 -2.65927 790.127Z" fill="#37355D"/>
<path d="M406.847 784.317C410.564 798.245 422.873 811.697 435.89 817.723L432.985 824.985H434.438C441.565 812.362 435.287 799.209 432.985 785.77L406.847 784.317Z" fill="#6DAD9D"/>
<path d="M-89.7881 829.343C-50.0907 848.829 3.84064 840.962 46.7139 840.962V842.415L23.4795 843.867C30.534 860.834 45.1165 875.294 55.8261 890.088C59.4274 895.063 64.0307 903.59 71.4265 900.54C100.978 888.354 71.8215 843.999 51.0703 840.962V839.51L101.896 830.795C82.9479 802.756 41.5573 797.453 10.4102 797.389C6.34995 804.355 1.30519 804.48 -2.65918 797.389C-30.7989 797.39 -75.6616 800.486 -89.7881 829.343Z" fill="#F8F8F7"/>
<path d="M8.95801 797.389V803.199H10.4102L8.95801 797.389Z" fill="#85859D"/>
<path d="M0.245117 804.651V806.104H6.05371L0.245117 804.651Z" fill="#B5B4BD"/>
<path d="M432.985 836.605H431.533V832.248L411.203 859.844L409.751 871.463C433.707 870.53 488.877 848.21 469.289 817.723C453.016 817.746 440.554 820.942 432.985 836.605Z" fill="#FFCDB5"/>
<path d="M242.754 824.985L226.78 888.893H271.797L257.275 867.106L264.536 868.559C261.185 855.5 255.206 831.208 242.754 824.985Z" fill="#5B9587"/>
<path d="M100.443 830.795V832.248H109.156L100.443 830.795Z" fill="#7D8FAB"/>
<path d="M68.4961 838.057V839.51L94.6348 836.605V846.772L107.704 838.057H96.0869L98.9912 832.248L68.4961 838.057Z" fill="#ACC1D8"/>
<path d="M96.0869 838.057L107.704 842.415C102.256 843.874 96.3105 845.376 94.6348 851.129C100.975 849.903 112.245 847.257 113.809 839.623C116.012 828.871 99.6781 834.432 96.0869 838.057Z" fill="#333859"/>
<path d="M254.371 832.248L255.823 851.129H257.275L254.371 832.248Z" fill="#9EA288"/>
<path d="M283.414 835.152L289.223 839.51L283.414 835.152Z" fill="#9F9787"/>
<path d="M51.0703 839.51V840.962C67.0817 844.529 79.5121 866.142 85.9219 880.178H87.374L94.6348 836.605L51.0703 839.51Z" fill="#E5E5E5"/>
<path d="M100.443 836.605V838.057H106.252L100.443 836.605Z" fill="#677D91"/>
<path d="M-88.3359 838.057C-85.4142 859.065 -82.1745 886.736 -65.2715 901.596C-56.4656 909.337 -44.2778 910.117 -33.1543 911.185C-8.86276 913.514 15.1892 910.73 39.4531 910.679L-1.20703 845.32C30.5979 853 29.2823 918.03 68.4961 904.869V903.417C51.3564 889.798 33.9901 863.044 23.4795 843.867L46.7139 842.415V840.962L-68.0059 839.51L-21.5371 910.679H-30.25C-31.4945 903.78 -34.8853 894.332 -41.8672 891.798C-45.043 878.91 -56.2318 860.354 -68.0059 854.034L-69.458 839.51L-88.3359 838.057Z" fill="#E5E5E5"/>
<path d="M283.414 838.057C284.129 856.724 291.196 854.978 301.352 866.787C315.148 882.83 328.68 905.583 348.761 915.037L357.474 903.417V901.965H347.309C342.612 877.442 317.38 868.813 300.262 855.408C293.756 850.313 290.506 842.792 283.414 838.057ZM-72.3623 839.51L-68.0059 854.034C-56.7459 862.182 -46.3645 878.64 -41.8672 891.798L-30.25 910.679H-21.5371L-52.4853 862.949L-72.3623 839.51Z" fill="white"/>
<path d="M-1.20703 845.319C6.96276 862.198 18.821 877.321 28.6927 893.249C33.781 901.456 37.5218 909.632 48.166 909.227C41.7286 892.267 28.4778 876.911 18.1095 862.094C12.6479 854.288 8.79827 846.897 -1.20703 845.319Z" fill="white"/>
<path d="M93.1826 846.772L97.5391 852.582V851.129L93.1826 846.772Z" fill="#6E7E88"/>
<path d="M547.705 848.224V849.677H707.441L653.712 848.224H547.705Z" fill="#D1D1B9"/>
<path d="M711.798 858.391C708.137 844.301 682.592 849.677 671.138 849.677H578.2C571.342 849.677 552.101 846.396 547.471 852.659C543.102 858.57 554.89 859.699 557.895 859.793C573.829 860.299 589.848 859.844 605.791 859.844H649.355C669.931 859.844 691.433 861.632 711.798 858.391Z" fill="#FFE7AF"/>
<path d="M550.609 859.844V861.296H704.537V868.559H705.989V859.844H550.609Z" fill="#E7AD87"/>
<path d="M293.579 862.749V865.654L303.744 871.463C301.852 865.731 299.725 863.221 293.579 862.749Z" fill="#638D79"/>
<path d="M550.609 861.296V864.201C577.269 864.201 603.867 865.651 630.478 865.654C642.632 865.655 658.812 863.506 668.883 871.992C679.66 881.074 665.534 892.004 657.868 896.707C638.785 908.416 611.695 910.634 589.817 910.679V912.132C631.89 925.016 702.025 916.605 704.537 861.296H550.609Z" fill="#DA8F73"/>
<path d="M431.533 888.893C454.281 888.893 460.575 888.194 460.576 864.201C449.303 869.745 438.547 878.429 431.533 888.893Z" fill="#6DAD9D"/>
<path d="M552.062 864.201C557.768 908.856 596.054 914.54 633.382 905.936C646.121 903 668.496 897.511 672.77 882.864C678.316 863.866 645.208 865.654 634.834 865.654C623.622 865.654 612.613 864.797 601.435 864.331C585.022 863.648 568.487 864.201 552.062 864.201Z" fill="#FFC195"/>
<path d="M264.536 865.654L257.275 867.106C262.226 895.265 295.683 888.893 316.813 888.893L303.744 871.463H302.292V880.178L264.536 865.654Z" fill="#6DAD9D"/>
<path d="M303.744 870.011V874.368H305.196L303.744 870.011Z" fill="#BFD1C5"/>
<path d="M697.276 883.083C682.541 912.559 658.484 915.037 624.669 915.037C614.934 915.037 601.244 917.137 592.722 913.584C581.592 908.947 573.394 900.488 565.131 894.702C561.964 892.485 563.406 889.195 560.774 887.44C558.858 886.162 551.562 887.44 549.157 887.44H517.21C496.605 887.44 472.532 885.931 454.768 888.893C448.159 889.994 431.97 890.046 432.985 885.988L408.299 900.512L428.733 929.965L432.12 942.379L414.107 945.538H361.83H146.912C150.088 931.578 174.379 906.976 188.014 901.92C200.672 897.227 219.219 900.512 232.589 900.512H329.883C319.092 881.285 283.503 888.893 264.536 888.893C223.88 888.893 183.258 887.44 142.556 887.44C126.536 887.44 99.7071 882.294 85.0637 889.144C78.7541 892.095 73.7935 898.96 68.4961 903.417V904.87H120.773V916.489C133.397 916.868 136.554 921.673 136.747 933.918H-88.3359V935.371C-77.7207 936.133 -66.9516 934.408 -56.3887 936.129C-34.3509 939.718 -12.1853 950.995 9.24407 957.539C44.1595 968.202 80.5446 974.921 116.546 980.581C270.608 1004.8 437.369 1015.11 589.69 974.241C656.732 956.252 719.186 925.713 778.597 890.345V888.893H724.867C714.842 888.893 705.256 890.043 697.276 883.083ZM-120.283 885.988L-111.57 906.322L-62.1973 904.87C-66.8151 899.394 -71.3545 892.03 -77.6017 888.344C-88.153 882.12 -108.348 885.988 -120.283 885.988ZM342.952 888.893L347.309 901.965H360.378L356.021 888.893H342.952Z" fill="#BFAEAB"/>
<path d="M-85.4316 936.823C-41.1484 987.692 32.5409 1007.86 96.0869 1020.2C184.378 1037.33 275.259 1037.5 364.734 1035.64C442.459 1034.02 524.327 1030.79 599.982 1011.15C676.347 991.324 759.594 968.572 794.57 888.893C770.594 889.022 750.929 906.175 730.801 917.686C706.422 931.625 679.711 941.772 653.699 952.045C574.519 983.317 487.39 997.066 402.49 1000.6C336.955 1003.33 271.241 997.616 206.321 990.693C163.914 986.171 120.772 982.584 78.9487 974.032C44.5894 967.006 10.9576 957.85 -22.5144 947.387C-44.3809 940.553 -61.6905 932.007 -85.4316 936.823Z" fill="#B5A3A1"/>
<path d="M329.883 899.06L277.605 900.512H184.668V901.965H296.483L329.883 899.06Z" fill="#DBC5A9"/>
<path d="M331.335 899.06C319.629 904.704 303.403 901.965 290.675 901.965H219.52C208.913 901.965 194.843 899.613 184.868 903.76C171.482 909.327 156.26 927.15 149.816 939.728L247.11 938.276H434.438C428.077 925.828 414.309 901.828 398.134 906.322C406.412 927.825 367.318 925.359 353.117 926.656V917.941H351.665C347.959 933.21 322.558 931.499 309.553 931.748C304.906 931.837 298.638 933.05 294.599 930.077C286.278 923.955 299.922 914.024 305.205 912.055C309.323 910.52 313.94 909.735 318.266 909.013C324.601 907.953 330.795 908.745 337.144 909.227L331.335 899.06Z" fill="#FFE7AF"/>
<path d="M-110.118 907.774L-60.7451 906.322C-72.8851 903.233 -99.2517 900.989 -110.118 907.774ZM65.5918 904.869V906.322H120.773L65.5918 904.869Z" fill="#443E3F"/>
<path d="M354.569 925.204H361.83L360.378 904.87C348.864 907.69 351.957 916.061 354.569 925.204Z" fill="#B75765"/>
<path d="M-108.666 906.322C-100.656 921.973 -76.4762 916.226 -61.6774 916.364C-17.034 916.78 28.3529 913.732 72.8525 917.526C86.4824 918.687 119.044 924.489 120.773 906.322L3.14941 913.578L-108.666 906.322Z" fill="#252533"/>
<path d="M55.4268 907.774V909.227H59.7832L55.4268 907.774Z" fill="#ACA8B4"/>
<path d="M315.361 909.227C317.377 917.957 317.487 924.167 313.909 932.466C321.09 931.795 332.632 931.548 338.613 927.176C346.728 921.246 342.162 912.659 334.239 910.679V912.132C335.709 917.891 334.13 921.196 329.883 925.204C328.476 916.116 325.584 908.84 315.361 909.227Z" fill="#BF4F5F"/>
<path d="M322.622 907.774V909.227L329.883 925.204C335.176 923.661 339.41 915.994 334.239 912.132V910.679H338.596L322.622 907.774Z" fill="#E16D75"/>
<path d="M348.761 907.774L350.213 926.656H351.665L348.761 907.774Z" fill="#EF9F9F"/>
<path d="M45.2617 909.227V910.679H51.0703L45.2617 909.227Z" fill="#B5B4BD"/>
<path d="M52.0388 909.711L53.006 910.196L52.0388 909.711Z" fill="#7C7C84"/>
<path d="M361.83 909.227V925.204L393.668 921.533L400.835 914.784L366.187 916.489L361.83 909.227Z" fill="#E16D75"/>
<path d="M366.187 915.037V916.489C378.511 916.489 388.548 916.751 399.586 910.679L366.187 915.037Z" fill="#EE928D"/>
<path d="M20.5752 910.679V912.132H32.1924L20.5752 910.679Z" fill="#B5B4BD"/>
<path d="M32.1924 910.679V912.132H43.8096L32.1924 910.679Z" fill="#6F6A75"/>
<path d="M313.909 932.466C315.213 929.982 316.568 927.589 317.127 924.801C322.849 896.31 281.32 921.246 293.445 929.307C298.474 932.65 308.018 931.395 313.909 932.466Z" fill="#E16D75"/>
<path d="M-14.2764 912.132V913.584H20.5752L-14.2764 912.132Z" fill="#4D4D55"/>
<path d="M342.952 912.132L340.048 929.561C350.908 926.903 349.774 919.182 342.952 912.132Z" fill="#DF6F7D"/>
<path d="M-104.31 915.037C-87.106 939.798 -61.6469 933.918 -34.6064 933.918H135.295V917.941L-28.7979 915.718L-104.31 915.037Z" fill="#37355D"/>
<path d="M122.226 916.489V917.941H135.295L122.226 916.489Z" fill="#6F6A75"/>
<path d="M135.295 917.941V933.918H136.747L135.295 917.941Z" fill="#6B617E"/>
<path d="M353.117 919.394V926.656H361.83V925.204H354.569L353.117 919.394Z" fill="#D39174"/>
<path d="M376.352 922.299V923.751H387.969L376.352 922.299Z" fill="#EF9F9F"/>
</g>
<defs>
<clipPath id="clip0_123_16064">
<rect width="1487" height="1191" fill="white" transform="translate(-402)"/>
</clipPath>
</defs>
</svg>
